<svg xmlns="http://www.w3.org/2000/svg" viewBox="0 0 5281.02 3337.17"><defs><style>.cls-1{fill:#e83d4a;}</style></defs><g id="Camada_2" data-name="Camada 2"><g id="Camada_1-2" data-name="Camada 1"><path class="cls-1" d="M1497.82,3337.17h-125.7c26.26-206.83,1.38-413.81-79.31-606.42-66.07-157.7-163.71-300-273.26-430.54-214-254.88-472.79-466.47-697.06-711.57C189,1442.7,66.36,1281.87,0,1093.53q107.67-107.29,223.25-206c73.44,211,194.7,399.89,331,575.53,210.12,270.87,448.21,520.09,642.14,803.55,96.75,141.41,181.92,292,238.23,454.34C1503.45,2919.49,1523.25,3128.74,1497.82,3337.17Z"/><path class="cls-1" d="M1658.56,3337.17h-125.7c25.38-211.48,5.9-423.81-61.7-626-54.17-162-135.75-313.38-228.49-456.36C1056,1967.07,827,1710.3,622.67,1435.61c-137.61-185-259.58-382.79-335-601.73q115.8-93.82,238.39-178.57c76.72,235.43,191.58,455.15,323.06,664.3,51.8,82.39,107.13,162.27,161.06,243.23,48.6,73,93.68,148.56,140.61,222.62,91,143.55,181.2,287.8,261,437.92,82,154.11,153,314.71,199,483.44C1666.84,2912.47,1682.08,3125.42,1658.56,3337.17Z"/><path class="cls-1" d="M1819.3,3337.17H1693.59c23-212.81,8.5-426.79-45.09-634.1-43.62-168.68-111-330-189-485.45-76.81-153-163.87-300.47-251.68-447.31-44.92-75.12-88.29-151.43-134.47-225.77-51.41-82.77-105.85-163.55-156.1-247.08-131-217.76-245.34-445.54-322.81-688.09q122.82-80.29,251.36-151.11c75.86,258.72,181.5,506.84,302.67,747.36,45,89.31,93.75,176.56,139.65,265.35,41.74,80.74,79.32,164,119,245.77,75.39,155.41,150,311.39,215.44,471.29,67.78,165.55,125.42,335.47,162,510.8A2128.55,2128.55,0,0,1,1819.3,3337.17Z"/><path class="cls-1" d="M1980,3337.17H1854.33a2250.92,2250.92,0,0,0-32.77-641.48c-34.46-175.13-88.73-345.46-152.78-511.85-62.5-162.34-133.9-321.06-206.18-479.23-37.76-82.63-74-166.16-113.19-248.12-43.89-91.79-92.26-181.47-136.16-273.31C1095.36,936.58,992.43,683.06,917.4,420q128.79-66.71,262.19-123.63c70.1,275.18,160.92,544.22,263.67,808.82,37.56,96.72,78.06,192.25,116.06,288.78,34.67,88.07,65.5,177.9,98,266.79,60.52,165.44,119.9,331.41,171.56,499.87C1946.17,2543.08,2010.81,2936.42,1980,3337.17Z"/><path class="cls-1" d="M2140.78,3337.17H2015.07c29-401.76-31.63-797.27-142.1-1182.93-49-171.11-105.51-340-163.22-508.32-30.21-88.14-59-177-91-264.51C1583.05,1284,1544.58,1187.53,1509,1090,1410.4,819.6,1322.71,545.34,1254,265.73q133.65-53.09,270.84-96.16c61.77,289.76,135.44,576.7,215.39,862,102.85,367,209.68,733.22,290.67,1105.86C2116.61,2532,2162.84,2933.05,2140.78,3337.17Z"/><path class="cls-1" d="M2301.52,3337.17H2175.81c19.93-403.4-22-804.39-100.5-1199.85-74.94-377.57-175.44-749.42-271.26-1122C1730,727.25,1660.68,438,1601.26,146.6q137.41-39.4,277.32-68.68c46.42,300.69,99,600.35,154,899.59,69.87,380.54,143.21,760.74,196.85,1144C2285.79,2524.47,2315.76,2930.18,2301.52,3337.17Z"/><path class="cls-1" d="M2462.26,3337.17H2336.55c12.87-408-14-814.94-64.56-1219.72-48.15-385.61-114-768.75-177.06-1152.13-49.37-300.41-96.64-601.15-138.36-902.72q140.07-25.69,281.65-41.21c24.85,306.59,53,612.89,82.41,919.07,37.48,390.3,76.2,780.57,104.35,1171.69C2454.33,2519.9,2469.92,2928.34,2462.26,3337.17Z"/><path class="cls-1" d="M2623,3337.17h-125.7c6.18-409.16-6.34-818.06-29.89-1226.52-22.61-392-53.72-783.47-83.91-1174.95-23.68-307.21-46.36-614.49-66.39-922Q2458.76,1.76,2600.92,0q3.67,462.23,8.13,924.43,5.57,591.22,10.29,1182.46Q2623.66,2722,2623,3337.17Z"/><path class="cls-1" d="M2783.73,3337.17H2658q-1.14-615.15,3.65-1230.28,4.16-591.24,10.29-1182.46Q2676.32,462.22,2680.1,0q142.16,1.76,283.82,13.74c-20,307.47-42.71,614.75-66.39,922-30.19,391.48-61.3,782.94-83.91,1175C2790.07,2519.11,2777.55,2928,2783.73,3337.17Z"/><path class="cls-1" d="M2944.47,3337.17h-125.7c-7.67-408.83,7.93-817.27,37.27-1225,28.15-391.12,66.87-781.39,104.35-1171.69C2989.8,634.28,3018,328,3042.8,21.39Q3184.37,36.9,3324.46,62.6c-41.73,301.57-89,602.31-138.37,902.72-63,383.38-128.91,766.52-177.06,1152.13C2958.49,2522.23,2931.6,2929.16,2944.47,3337.17Z"/><path class="cls-1" d="M3105.21,3337.17h-125.7c-14.25-407,15.72-812.7,72.12-1215.65,53.64-383.27,127-763.47,196.85-1144,54.94-299.24,107.54-598.9,154-899.59q139.91,29.28,277.32,68.68C3620.34,438,3551.05,727.25,3477,1015.29c-95.82,372.61-196.33,744.46-271.27,1122C3127.22,2532.78,3085.29,2933.77,3105.21,3337.17Z"/><path class="cls-1" d="M3266,3337.17H3140.24c-22.06-404.12,24.17-805.18,109.94-1199.79,81-372.64,187.81-738.89,290.66-1105.86,79.95-285.25,153.62-572.19,215.4-861.95q137.18,43.08,270.83,96.16C3958.31,545.34,3870.62,819.6,3772,1090c-35.56,97.5-74,193.93-109.69,291.38-32,87.5-60.82,176.37-91,264.51-57.71,168.35-114.2,337.21-163.22,508.32C3297.58,2539.9,3236.94,2935.41,3266,3337.17Z"/><path class="cls-1" d="M3426.69,3337.17H3301c-30.77-400.75,33.87-794.09,151.14-1176.56,51.66-168.46,111-334.43,171.56-499.87,32.52-88.89,63.35-178.72,98-266.79,38-96.53,78.5-192.06,116.06-288.78,102.75-264.6,193.57-533.64,263.68-808.82q133.4,56.92,262.18,123.63c-75,263.08-178,516.6-295.84,763.21-43.9,91.83-92.28,181.51-136.16,273.31-39.18,82-75.44,165.48-113.2,248.11-72.28,158.17-143.67,316.89-206.17,479.23-64.06,166.39-118.33,336.72-152.79,511.85A2250.92,2250.92,0,0,0,3426.69,3337.17Z"/><path class="cls-1" d="M3587.43,3337.17H3461.72a2128.88,2128.88,0,0,1,34.82-638.34c36.56-175.33,94.2-345.25,162-510.79,65.47-159.91,140-315.88,215.43-471.3,39.67-81.78,77.25-165,119-245.77,45.9-88.79,94.67-176,139.65-265.35C4253.77,965.1,4359.42,717,4435.27,458.26q128.53,70.8,251.37,151.11c-77.48,242.55-191.82,470.33-322.81,688.09-50.26,83.53-104.69,164.31-156.11,247.08-46.18,74.34-89.54,150.65-134.47,225.77-87.8,146.84-174.87,294.35-251.68,447.31-78.05,155.44-145.43,316.77-189,485.45C3578.93,2910.38,3564.43,3124.36,3587.43,3337.17Z"/><path class="cls-1" d="M3748.17,3337.17H3622.46c-23.52-211.75-8.27-424.7,47.75-630.35,46-168.73,117-329.33,199-483.44,79.85-150.12,170.1-294.37,261.06-437.92,46.92-74.06,92-149.67,140.6-222.62,53.94-81,109.27-160.84,161.06-243.23,131.49-209.15,246.35-428.87,323.06-664.3Q4877.58,740,4993.36,833.88c-75.42,218.94-197.4,416.75-335,601.73-204.35,274.69-433.36,531.46-620,819.23-92.74,143-174.31,294.34-228.49,456.36C3742.27,2913.36,3722.79,3125.69,3748.17,3337.17Z"/><path class="cls-1" d="M3908.91,3337.17H3783.2c-25.42-208.43-5.63-417.68,63.25-616.27,56.31-162.33,141.49-312.93,238.24-454.34,193.92-283.46,432-532.68,642.13-803.55,136.25-175.64,257.51-364.53,331-575.53q115.57,98.71,223.24,206c-66.36,188.34-189,349.17-322.49,495.11-224.27,245.1-483.1,456.69-697.06,711.57-109.54,130.5-207.19,272.84-273.26,430.54C3907.52,2923.36,3882.64,3130.34,3908.91,3337.17Z"/></g></g></svg>