<svg xmlns="http://www.w3.org/2000/svg" viewBox="0 0 178.2 100.59"><defs><style>.cls-1{fill:#ededed;}.cls-2{fill:#1d1d1b;}.cls-3{fill:#432918;}.cls-4{fill:#fff;}</style></defs><g id="Camada_2" data-name="Camada 2"><g id="Camada_1-2" data-name="Camada 1"><path class="cls-1" d="M22,84.33.34,70.57,14.1,48.9A100.59,100.59,0,0,1,152.93,18l21.66,13.76L160.82,53.4A100.56,100.56,0,0,1,22,84.33Z" transform="translate(0 0)"/><path class="cls-2" d="M21.92,84.46.21,70.77,0,70.64l.13-.21L14,48.22a104.07,104.07,0,0,1,16.6-20.37,102.35,102.35,0,0,1,46.14-25,100.69,100.69,0,0,1,52.88,1.48c1.08.3,2.13.68,3.19,1.05s2.11.72,3.16,1.11c2.06.87,4.17,1.62,6.18,2.62l3,1.41,3,1.57c2,1,3.88,2.23,5.82,3.36l22,14.11L178.2,31l-1.41,2.18L164.28,52.38l-1.57,2.41-1.66,2.42c-1.07,1.64-2.3,3.16-3.5,4.71s-2.51,3-3.76,4.49-2.67,2.85-4,4.28a103.26,103.26,0,0,1-18.27,14.5,106.46,106.46,0,0,1-10.21,5.59c-1.78.79-3.53,1.61-5.33,2.33s-3.6,1.45-5.45,2a102.56,102.56,0,0,1-22.6,5,103.41,103.41,0,0,1-11.53.49c-1,0-1.93,0-2.89,0l-2.88-.16c-1.92-.06-3.83-.33-5.74-.51A103.34,103.34,0,0,1,21.92,84.46Zm.16-.25A100.8,100.8,0,0,0,65,99.24a102.79,102.79,0,0,0,22.86-.13,101.13,101.13,0,0,0,22.23-5.3c1.82-.59,3.56-1.39,5.33-2.09s3.48-1.58,5.21-2.39a104.75,104.75,0,0,0,9.93-5.68,100.31,100.31,0,0,0,17.63-14.53c1.28-1.42,2.62-2.79,3.84-4.25s2.49-2.9,3.59-4.46,2.31-3,3.34-4.65l1.59-2.37L162.05,51l12.3-19.39.09.39-22.1-14a100.28,100.28,0,0,0-121,10.73,101.2,101.2,0,0,0-16.8,19.89L.48,70.66l0-.24Z" transform="translate(0 0)"/><path class="cls-2" d="M68.06,70.37A25.75,25.75,0,1,1,93.21,39,25.74,25.74,0,0,1,73.68,69.75,26,26,0,0,1,68.06,70.37Z" transform="translate(0 0)"/><path class="cls-3" d="M68.09,27.87A16.75,16.75,0,0,1,71.72,61a17,17,0,0,1-3.66.4,16.75,16.75,0,0,1-3.63-33.1,17.09,17.09,0,0,1,3.66-.4m0-18h0a35.18,35.18,0,0,0-7.57.83,34.75,34.75,0,0,0-14,61.15,34.75,34.75,0,1,0,21.6-62Z" transform="translate(0 0)"/><circle class="cls-4" cx="54.91" cy="31.88" r="6.03"/><circle class="cls-4" cx="76.52" cy="54.6" r="1.88"/></g></g></svg>