<svg xmlns="http://www.w3.org/2000/svg" viewBox="0 0 152.04 90.19"><defs><style>.cls-1{fill:#ededed;}.cls-2{fill:#1d1d1b;}.cls-3{fill:#662483;}.cls-4{fill:#fff;}</style></defs><g id="Camada_2" data-name="Camada 2"><g id="Camada_1-2" data-name="Camada 1"><path class="cls-1" d="M146.78,64.6l5,12.22-12.23,5A100.56,100.56,0,0,1,8.43,26.7l-5-12.23,12.23-5A100.56,100.56,0,0,1,146.78,64.6Z"/><path class="cls-2" d="M146.92,64.54l5,12.21.08.19-.19.07c-3.9,1.63-12.24,5.08-16,6.55a103.61,103.61,0,0,1-22.4,5.64C80.6,94,45.59,81.3,23.67,56.24a99.34,99.34,0,0,1-16-24.69C5.84,27.78,2.61,19.36,1,15.47L0,13c3.29-1.33,11.55-4.68,14.85-6,51.94-20.69,111.38,6,132.07,57.51Zm-.28.11C130.6,24.29,87.51-1.78,44.32,2.7a100.22,100.22,0,0,0-25.9,6C14.89,10,7.1,13.32,3.55,14.73l.16-.37c2.72,6.3,5.92,15.17,9.14,21.12,21.48,41.87,72.39,63.3,117.36,49.43,6.51-1.81,15.14-5.76,21.5-8.23l-.09.2-5-12.23Z"/><path class="cls-2" d="M92.87,81.09a22.09,22.09,0,1,1,20.37-13.53A21.93,21.93,0,0,1,92.87,81.09Z"/><path class="cls-3" d="M92.88,43.89a14.92,14.92,0,0,1,5.84,1.19,15.06,15.06,0,1,1-5.84-1.19m0-14h0a29.11,29.11,0,1,0,11.27,2.28,29,29,0,0,0-11.27-2.28Z"/><circle class="cls-4" cx="106.94" cy="73.7" r="9.71"/></g></g></svg>