<svg xmlns="http://www.w3.org/2000/svg" viewBox="0 0 178.47 96.88"><defs><style>.cls-1{fill:#ededed;}.cls-2{fill:#1d1d1b;}.cls-3{fill:#00a19a;}.cls-4{fill:#fff;}</style></defs><g id="Camada_2" data-name="Camada 2"><g id="Camada_1-2" data-name="Camada 1"><path class="cls-1" d="M19.58,76.06.34,61.62,14.77,42.37a100.58,100.58,0,0,1,140.8-20.11L174.82,36.7,160.38,56A100.58,100.58,0,0,1,19.58,76.06Z"/><path class="cls-2" d="M19.49,76.18.19,61.81,0,61.67l.14-.2C5.3,54.6,10.28,47.61,15.44,40.74l2-2.57,2.09-2.47c1.36-1.68,2.88-3.22,4.35-4.81.72-.8,1.54-1.51,2.3-2.28s1.53-1.53,2.35-2.23c1.64-1.42,3.23-2.89,5-4.2A102.11,102.11,0,0,1,80.74,1.3L84,.86,85.62.63,87.26.49,90.53.2,93.81.07,95.46,0H97.1l3.29,0,3.29.18,1.64.1L107,.5l3.28.36,3.25.52,1.63.27,1.62.33,3.22.69a99.4,99.4,0,0,1,12.62,3.88,102.57,102.57,0,0,1,23.19,12.54c1.83,1.27,3.46,2.58,5.2,3.87l5.14,3.89,10.27,7.77,2.09,1.57-1.57,2.08c-4.56,6-9.22,12-13.82,18.07-1.13,1.5-2.42,3-3.62,4.52s-2.57,2.9-3.86,4.35-2.73,2.75-4.13,4.09-2.84,2.63-4.35,3.85a101.76,101.76,0,0,1-40.89,20.74,100.43,100.43,0,0,1-22.73,3,109,109,0,0,1-22.75-2.08A103.82,103.82,0,0,1,19.49,76.18Zm.18-.24A101.12,101.12,0,0,0,60.86,94.18a100.94,100.94,0,0,0,45-1.66,99.66,99.66,0,0,0,39.75-21.1c1.45-1.21,2.79-2.56,4.18-3.83s2.65-2.7,4-4.07,2.52-2.82,3.7-4.3,2.37-2.94,3.49-4.47l13.64-18.22.06.4C167.77,31.8,160.92,26.59,154,21.52A99,99,0,0,0,131.53,9.24,100.26,100.26,0,0,0,34.16,23.08,98.74,98.74,0,0,0,16,41.15C10.76,48,5.64,54.87.47,61.72l0-.24Z"/><path class="cls-2" d="M65.51,81.87A25.65,25.65,0,0,1,40.25,60,25.54,25.54,0,0,1,61.92,31.06a26,26,0,0,1,3.63-.26,25.54,25.54,0,0,1,3.59,50.82A26,26,0,0,1,65.51,81.87Z"/><path class="cls-3" d="M65.55,39.8a16.54,16.54,0,0,1,2.32,32.91,17.12,17.12,0,0,1-2.36.16A16.53,16.53,0,0,1,63.19,40a15.8,15.8,0,0,1,2.36-.17m0-18a35,35,0,0,0-4.9.35,34.53,34.53,0,0,0,4.86,68.72,35,35,0,0,0,4.9-.34A34.54,34.54,0,0,0,65.55,21.8Z"/><circle class="cls-4" cx="82.52" cy="41.67" r="8.74"/><circle class="cls-4" cx="53.05" cy="75.68" r="4.06"/></g></g></svg>