<svg xmlns="http://www.w3.org/2000/svg" viewBox="0 0 134.05 81.54"><defs><style>.cls-1{fill:#ededed;}.cls-2{fill:#1d1d1b;}.cls-3{fill:#009640;}.cls-4{fill:#fff;}</style></defs><g id="Camada_2" data-name="Camada 2"><g id="Camada_1-2" data-name="Camada 1"><path class="cls-1" d="M1.18,9.27l-1-3,3-1A100.58,100.58,0,0,1,129.71,70.34l1,3-3,1A100.57,100.57,0,0,1,1.18,9.27Z"/><path class="cls-2" d="M1,9.32l-1-3,0-.16.16,0C1.79,5.55,3.41,5,5.06,4.54s3.28-1,5-1.38S13.35,2.32,15,2s3.37-.66,5.07-.88a101.06,101.06,0,0,1,20.57-1,101.64,101.64,0,0,1,72.86,35.59,97.42,97.42,0,0,1,11.79,17.41c.86,1.53,1.59,3.13,2.34,4.72s1.43,3.21,2.1,4.83S131,66,131.62,67.63s1.1,3.29,1.62,4.92l.81,2.57-2.55.81c-1.6.5-3.18,1-4.86,1.48s-3.3,1-5,1.35-3.35.82-5.05,1.09-3.38.66-5.1.84a102,102,0,0,1-20.59.58A102.42,102.42,0,0,1,51.76,69.94,103.16,103.16,0,0,1,20.34,44.53,103.17,103.17,0,0,1,9,27.84,101.6,101.6,0,0,1,1,9.32Zm.28-.09A100.58,100.58,0,0,0,20.86,44.09,100.7,100.7,0,0,0,52.47,68.5,100.54,100.54,0,0,0,91.06,78.71a99.5,99.5,0,0,0,20-.86c1.66-.18,3.3-.55,5-.84s3.27-.71,4.9-1.09,3.23-.87,4.84-1.33,3.2-1,4.8-1.5l-.19.37c-.52-1.63-1-3.26-1.61-4.87s-1.1-3.23-1.78-4.8-1.26-3.17-2-4.71-1.42-3.1-2.25-4.59a100,100,0,0,0-11.26-17.07A100.31,100.31,0,0,0,40.63.88a100,100,0,0,0-20.46.72c-1.7.19-3.37.52-5.06.83s-3.34.7-5,1.09S6.8,4.39,5.16,4.87,1.89,5.86.25,6.38l.1-.19Z"/><path class="cls-2" d="M44.54,50.08a19.89,19.89,0,0,1-9-2.19,19.77,19.77,0,0,1,9.06-37.35,19.77,19.77,0,0,1,0,39.54Z"/><path class="cls-3" d="M44.57,16.54a13.63,13.63,0,0,1,6.28,1.53,13.77,13.77,0,0,1-6.31,26,13.63,13.63,0,0,1-6.28-1.53,13.77,13.77,0,0,1,6.31-26m0-12h0A25.79,25.79,0,1,0,56.34,7.4,25.69,25.69,0,0,0,44.57,4.54Z"/><circle class="cls-4" cx="60.77" cy="27.1" r="5.81"/></g></g></svg>