<svg xmlns="http://www.w3.org/2000/svg" viewBox="0 0 161.63 111.52"><defs><style>.cls-1{fill:#ededed;}.cls-2{fill:#1d1d1b;}.cls-3{fill:#f39200;}.cls-4{fill:#fff;}</style></defs><g id="Camada_2" data-name="Camada 2"><g id="Camada_1-2" data-name="Camada 1"><path class="cls-1" d="M136.13,4.53l25.2,7.59-7.59,25.19A100.56,100.56,0,0,1,28.46,104.63L3.26,97.05l7.59-25.2A100.56,100.56,0,0,1,136.13,4.53Z"/><path class="cls-2" d="M136.17,4.39l25.23,7.49.23.07-.07.24c-4.53,15-9.33,36.36-17.79,49.57C121,101.08,71.28,120.87,27.69,107.22L2.51,99.54,0,98.77C3,89.68,8,72,11.5,63.26a102.16,102.16,0,0,1,56.67-56,103.65,103.65,0,0,1,68-2.9Zm-.08.29A100.35,100.35,0,0,0,13.8,64.17C10.9,71.46,6,89.44,3.53,97.13l-.19-.35c14.9,4.3,35.51,11.87,51.05,11.79,44.27,2,87-28.7,99.17-71.3l7.61-25.2c1.29.8-25.56-7.64-25.08-7.39Z"/><path class="cls-2" d="M107.38,69.83a25.84,25.84,0,1,1,12.22-3.08A25.82,25.82,0,0,1,107.38,69.83Z"/><path class="cls-3" d="M107.35,27.15a16.84,16.84,0,1,1-7.95,2,16.85,16.85,0,0,1,7.95-2m0-18h0A35,35,0,0,0,90.88,13.3a34.83,34.83,0,1,0,16.47-4.15Z"/><circle class="cls-4" cx="98.07" cy="64.65" r="8.99"/></g></g></svg>