<svg xmlns="http://www.w3.org/2000/svg" viewBox="0 0 148.03 67.74"><defs><style>.cls-1{fill:#ededed;}.cls-2{fill:#1d1d1b;}.cls-3{fill:#fff;stroke:#1d1d1b;stroke-miterlimit:10;}</style></defs><g id="Camada_2" data-name="Camada 2"><g id="Camada_1-2" data-name="Camada 1"><path class="cls-1" d="M146.19,44.29l1.61,2.28-2.28,1.62A100.57,100.57,0,0,1,5.35,24.09L3.73,21.81,6,20.19A100.57,100.57,0,0,1,146.19,44.29Z"/><path class="cls-2" d="M146.31,44.2l1.62,2.28.1.13-.13.1c-1.39,1-2.78,2-4.2,2.92l-2.12,1.44c-.72.46-1.46.89-2.19,1.33l-2.19,1.33c-.73.43-1.5.82-2.25,1.23l-2.25,1.21c-.76.39-1.54.74-2.31,1.11a100.1,100.1,0,0,1-19.23,7.08,102.06,102.06,0,0,1-41,2.29,101.32,101.32,0,0,1-38.86-14.3,96.36,96.36,0,0,1-16.42-13c-.62-.61-1.26-1.21-1.87-1.84l-1.78-1.93c-.59-.65-1.2-1.27-1.77-1.94l-1.68-2c-.55-.67-1.13-1.33-1.67-2l-1.57-2.1c-.52-.7-1.07-1.4-1.57-2.1L1.54,23.36,0,21.16l2.18-1.54c1.36-1,2.74-1.92,4.2-2.87S9.24,14.84,10.73,14s2.95-1.76,4.49-2.53,3-1.62,4.61-2.31A102.15,102.15,0,0,1,39.27,2.48a102.62,102.62,0,0,1,78.14,14A105.32,105.32,0,0,1,133.21,29,102.31,102.31,0,0,1,146.31,44.2Zm-.25.18A100.45,100.45,0,0,0,39.89,5a98.78,98.78,0,0,0-18.83,6.76c-1.53.67-3,1.48-4.47,2.27s-2.91,1.62-4.34,2.49S9.41,18.26,8,19.2,5.27,21.08,3.9,22.05L4,21.64c1,1.39,2,2.78,3,4.13l1.52,2.05c.52.67,1.07,1.31,1.61,2l1.62,2c.55.64,1.14,1.26,1.71,1.89l1.72,1.88c.58.62,1.2,1.2,1.8,1.8a99.42,99.42,0,0,0,15.83,12.8A100.74,100.74,0,0,0,70.48,65,100.91,100.91,0,0,0,111,63.64a99.12,99.12,0,0,0,19.21-6.75c.77-.36,1.55-.71,2.31-1.09l2.25-1.2c.75-.4,1.51-.78,2.25-1.21l2.19-1.31c.73-.44,1.47-.85,2.18-1.32l2.13-1.41q2.13-1.41,4.2-2.9l0,.21Z"/><path class="cls-2" d="M92.32,58.89a19.72,19.72,0,0,1,0-39.44,20,20,0,0,1,3.36.29,19.72,19.72,0,0,1-3.33,39.15Z"/><path class="cls-2" d="M92.29,25.45a14.41,14.41,0,0,1,2.34.2,13.72,13.72,0,0,1-2.31,27.24,14.41,14.41,0,0,1-2.34-.2,13.72,13.72,0,0,1,2.31-27.24m0-12h0a25.83,25.83,0,1,0,4.37.38,25.66,25.66,0,0,0-4.37-.38Z"/><circle class="cls-3" cx="104.3" cy="50.8" r="7.31"/></g></g></svg>