<svg xmlns="http://www.w3.org/2000/svg" viewBox="0 0 329.32 329.32"><defs><style>.cls-1{fill:#f9b233;}.cls-2{fill:#ededed;}.cls-3{fill:#1d1d1b;}.cls-4{fill:none;stroke:#f9b233;stroke-miterlimit:10;stroke-width:8px;}.cls-5{fill:#fff;}</style></defs><g id="Camada_2" data-name="Camada 2"><g id="Camada_1-2" data-name="Camada 1"><rect class="cls-1" width="329.32" height="329.32"/><path class="cls-2" d="M93.16,226.6,37.44,168.91l57.69-55.72a100.56,100.56,0,0,1,142.2,2.48l55.72,57.69-57.69,55.71A100.56,100.56,0,0,1,93.16,226.6Z"/><path class="cls-3" d="M93.05,226.7l-56-57.42-.36-.38.37-.37,56.62-55.95a102.77,102.77,0,0,1,33.45-22.29,101.46,101.46,0,0,1,39.64-7.65,103,103,0,0,1,72.91,31.59l55,57.51,1.62,1.7L294.66,175l-43.29,40.88-10.84,10.21c-1.82,1.7-3.56,3.42-5.46,5.1l-2.81,2.5-2.93,2.38a101,101,0,0,1-55.22,21.41,113,113,0,0,1-15,.08,100.93,100.93,0,0,1-29.11-6.34,107.05,107.05,0,0,1-13.51-6.32,105.33,105.33,0,0,1-12.42-8.25A110.21,110.21,0,0,1,93.05,226.7Zm.21-.2a110.53,110.53,0,0,0,11.09,9.88,99.88,99.88,0,0,0,25.89,14.37,107.08,107.08,0,0,0,14.25,4.16,100.27,100.27,0,0,0,83.89-20l2.85-2.37L234,230c1.83-1.66,3.58-3.43,5.37-5.14l10.71-10.35,42.81-41.38v.37l-55.32-57.23a100.3,100.3,0,0,0-142.69-2.53L37.57,169.05v-.27Z"/><path class="cls-3" d="M178.89,203.9a35.49,35.49,0,1,1,21.84-32.15A35.34,35.34,0,0,1,178.89,203.9Z"/><path class="cls-4" d="M150.5,135.71a38.37,38.37,0,1,1-23.61,34.76,38.33,38.33,0,0,1,23.61-34.76m-3.68-8.82a47.92,47.92,0,1,1-29.49,43.41,47.68,47.68,0,0,1,29.49-43.41m-3.67-8.82a57.47,57.47,0,1,1-35.37,52.07,57.3,57.3,0,0,1,35.37-52.07m-3.84-9.2h0a67.45,67.45,0,1,0,27.11-5.17,67.44,67.44,0,0,0-27.11,5.17Z"/><circle class="cls-5" cx="130.68" cy="157.52" r="8.8"/></g></g></svg>